<svg xmlns="http://www.w3.org/2000/svg" version="1.1" xlink="http://www.w3.org/1999/xlink" xmlns:svgjs="http://svgjs.com/svgjs" width="300" height="129.3337865810892"><defs id="SvgjsDefs48556"/><g id="SvgjsG48557" transform="scale(1.2711268061842396)" opacity="1"><g id="SvgjsG48558" class="RWJfQLR_P" transform="translate(-19.470118988526554, -11.681837884698743) scale(1.1681837884698743)" light-content="false" fill="#0e1d3d"><path d="M16.667 43.33C16.667 69.104 37.559 90 63.333 90v-6.667c-22.093 0-40-17.91-40-40.003h-6.666z"/><path d="M63.333 16.667c-14.729 0-26.666 11.94-26.666 26.664C36.667 58.06 48.604 70 63.333 70v6.667C44.922 76.667 30 61.741 30 43.33 30 24.922 44.922 10 63.333 10v6.667z"/><path d="M63.333 43.333v20c-11.048 0-20-8.955-20-20.003 0-11.045 8.952-19.997 20-19.997 11.049 0 20 8.952 20 19.997l-20 .003z"/></g><g id="SvgjsG48559" class="text" transform="translate(151.84107064124728, 101.24735153879499) scale(1)" light-content="false" fill="#163c8a"><path d="M-80.81 -3.12C-78.65 -0.71 -75.14 0.5 -70.28 0.5C-65.83 0.5 -62.65 -0.86 -60.71 -3.58C-58.78 -6.3 -57.82 -10.3 -57.82 -15.58C-57.82 -17.94 -58.11 -19.99 -58.69 -21.71C-59.27 -23.44 -60.04 -24.93 -60.99 -26.2C-61.95 -27.47 -63.15 -28.8 -64.61 -30.22L-70.84 -36.2C-72.83 -38.07 -73.83 -39.87 -73.83 -41.62C-73.83 -42.41 -73.62 -43.03 -73.21 -43.49C-72.79 -43.94 -72.17 -44.17 -71.34 -44.17C-70.63 -44.17 -70.08 -43.97 -69.69 -43.55C-69.29 -43.13 -69.09 -42.57 -69.09 -41.87L-69.03 -38.19L-58.13 -38.19C-58.13 -43.63 -59.19 -47.63 -61.31 -50.19C-63.42 -52.74 -66.89 -54.02 -71.71 -54.02C-75.74 -54.02 -78.8 -52.82 -80.9 -50.43C-83 -48.05 -84.05 -44.57 -84.05 -40C-84.05 -35.76 -82.26 -31.9 -78.69 -28.41L-74.08 -23.8C-72.42 -22.18 -71.26 -20.99 -70.62 -20.22C-69.98 -19.45 -69.45 -18.49 -69.03 -17.35C-68.62 -16.21 -68.41 -14.77 -68.41 -13.02C-68.41 -11.69 -68.6 -10.75 -68.97 -10.19C-69.34 -9.63 -70.01 -9.35 -70.96 -9.35C-72.67 -9.35 -73.52 -10.67 -73.52 -13.33L-73.52 -20L-84.05 -20L-84.05 -14.77C-84.05 -9.41 -82.97 -5.52 -80.81 -3.12Z M-41.81 0L-32.15 0L-32.15 -38.57L-25.61 0L-16.01 0L-9.84 -38.57L-9.84 0L-0.06 0L-0.06 -53.52L-16.51 -53.52L-21 -20.87L-25.48 -53.52L-41.81 -53.52Z M17.13 -53.52L17.13 0L27.66 0L27.66 -21.18L32.02 -21.18C36.22 -21.18 39.13 -22.53 40.75 -25.23C42.37 -27.93 43.18 -31.94 43.18 -37.26C43.18 -42.57 42.26 -46.61 40.43 -49.38C38.61 -52.14 35.55 -53.52 31.28 -53.52ZM28.29 -30.84L27.66 -30.84L27.66 -43.8L28.85 -43.8C30.34 -43.8 31.34 -43.3 31.84 -42.3C32.34 -41.31 32.58 -39.69 32.58 -37.44C32.58 -35.78 32.49 -34.51 32.3 -33.61C32.12 -32.72 31.72 -32.03 31.12 -31.56C30.52 -31.08 29.57 -30.84 28.29 -30.84Z M61.18 -3.12C63.34 -0.71 66.85 0.5 71.71 0.5C76.16 0.5 79.34 -0.86 81.27 -3.58C83.21 -6.3 84.17 -10.3 84.17 -15.58C84.17 -17.94 83.88 -19.99 83.3 -21.71C82.72 -23.44 81.95 -24.93 80.99 -26.2C80.04 -27.47 78.83 -28.8 77.38 -30.22L71.15 -36.2C69.16 -38.07 68.16 -39.87 68.16 -41.62C68.16 -42.41 68.37 -43.03 68.78 -43.49C69.2 -43.94 69.82 -44.17 70.65 -44.17C71.36 -44.17 71.91 -43.97 72.3 -43.55C72.7 -43.13 72.89 -42.57 72.89 -41.87L72.96 -38.19L83.86 -38.19C83.86 -43.63 82.8 -47.63 80.68 -50.19C78.56 -52.74 75.1 -54.02 70.28 -54.02C66.25 -54.02 63.19 -52.82 61.09 -50.43C58.99 -48.05 57.94 -44.57 57.94 -40C57.94 -35.76 59.73 -31.9 63.3 -28.41L67.91 -23.8C69.57 -22.18 70.72 -20.99 71.37 -20.22C72.01 -19.45 72.54 -18.49 72.96 -17.35C73.37 -16.21 73.58 -14.77 73.58 -13.02C73.58 -11.69 73.39 -10.75 73.02 -10.19C72.65 -9.63 71.98 -9.35 71.03 -9.35C69.32 -9.35 68.47 -10.67 68.47 -13.33L68.47 -20L57.94 -20L57.94 -14.77C57.94 -9.41 59.02 -5.52 61.18 -3.12Z"/></g></g></svg>